<svg width="352" height="598" viewBox="0 0 352 598" fill="none" xmlns="http://www.w3.org/2000/svg">
<g id="toanimate">
<g id="Group">
<path id="Vector" d="M124.995 154.5H99.493C96.401 154.5 93.872 151.97 93.872 148.879V95.581C93.872 92.489 96.402 89.96 99.493 89.96H124.995C128.087 89.96 130.616 92.49 130.616 95.581V148.879C130.616 151.971 128.087 154.5 124.995 154.5Z" fill="#FB947B"/>
<path id="Vector_2" d="M130.619 126.336V140.624C117.929 135.696 95.745 114.063 93.874 103.931V95.583C93.874 94.318 94.3 93.142 95.012 92.201C97.514 97.026 99.415 100.01 99.415 100.01L101.256 102.113C104.625 111.777 117.863 121.431 130.619 126.336Z" fill="#E46758"/>
<g id="Group_2">
<g id="Group_3">
<path id="Vector_3" d="M146.486 129.655C131.659 130.044 106.128 116.093 101.258 102.114L99.414 100.009C99.414 100.009 68.236 51.16 92.501 29.194C98.122 24.107 107.088 25.053 114.668 24.955L123.269 24.843C144.358 24.557 161.808 38.7 162.051 56.262L162.215 68.399L162.445 85.483C162.445 85.483 162.27 129.24 146.486 129.655Z" fill="#FBC0A7"/>
<path id="Vector_4" d="M93.963 95.241C93.963 95.241 93.874 95.335 93.846 95.325C93.813 95.316 93.794 95.306 93.785 95.297C93.776 95.288 93.785 95.278 93.808 95.269C93.836 95.259 93.888 95.245 93.963 95.241Z" fill="white"/>
<path id="Vector_5" d="M160.66 76.528C167.586 81.032 171.602 87.14 169.632 90.17C167.661 93.2 160.45 92.004 153.524 87.5C146.599 82.996 142.582 76.888 144.552 73.858C146.522 70.828 153.734 72.024 160.66 76.528Z" fill="#FBC0A7"/>
<path id="Vector_6" d="M96.811 25.529C96.811 25.529 74.658 25.455 69.953 28.445C62.583 33.129 59.308 41.821 61.157 49.872C61.159 49.895 61.159 49.916 61.161 49.94L61.207 50.075C61.486 51.232 61.866 52.376 62.36 53.491L72.79 84.399C75.082 99.088 84.934 105.005 94.164 104.909C94.164 104.909 110.649 104.001 111.135 84.035L113.809 48.975C113.689 35.984 106.041 25.433 96.811 25.529Z" fill="#191B2A"/>
<path id="Vector_7" d="M148.948 103.888L161.391 105.378C162.919 105.561 164.32 104.461 164.505 102.934C164.69 101.407 163.591 100.008 162.064 99.825L149.621 98.335C148.093 98.152 146.692 99.252 146.507 100.779C146.321 102.306 147.42 103.705 148.948 103.888Z" fill="#FBC0A7"/>
<path id="Vector_8" d="M147.296 108.478L159.739 109.968C161.267 110.151 162.668 109.051 162.853 107.524C163.038 105.997 161.939 104.598 160.412 104.415L147.969 102.925C146.441 102.742 145.04 103.842 144.855 105.369C144.67 106.896 145.768 108.295 147.296 108.478Z" fill="#FBC0A7"/>
<path id="Vector_9" d="M107.599 76.125H99.952C95.901 76.125 92.586 72.81 92.586 68.759V23.014C92.586 18.963 95.901 15.648 99.952 15.648H114.252C118.303 15.648 121.618 18.963 121.618 23.014V62.106C121.617 69.816 115.309 76.125 107.599 76.125Z" fill="#191B2A"/>
<g id="Group_4">
<g id="Group_5">
<path id="Vector_10" d="M160.316 69.161C161.016 64.724 157.986 60.56 153.549 59.86C149.112 59.16 144.948 62.19 144.248 66.627C143.548 71.064 146.578 75.228 151.015 75.928C155.452 76.628 159.617 73.598 160.316 69.161Z" fill="white"/>
<path id="Vector_11" d="M160.208 69.702C160.679 66.715 158.639 63.911 155.652 63.44C152.665 62.969 149.861 65.009 149.39 67.996C148.919 70.983 150.959 73.786 153.946 74.258C156.934 74.728 159.737 72.689 160.208 69.702Z" fill="#4994F0"/>
<path id="Vector_12" d="M159.95 69.659C160.315 67.345 158.735 65.173 156.421 64.808C154.107 64.443 151.935 66.023 151.57 68.337C151.205 70.651 152.785 72.823 155.099 73.188C157.413 73.553 159.585 71.973 159.95 69.659Z" fill="#002539"/>
<path id="Vector_13" d="M151.909 66.862C151.93 66.727 152.506 66.706 153.195 66.815C153.884 66.924 154.425 67.121 154.404 67.256C154.383 67.391 153.807 67.412 153.118 67.303C152.429 67.194 151.888 66.997 151.909 66.862Z" fill="white"/>
<path id="Vector_14" d="M154.92 68.68C154.942 68.54 154.847 68.409 154.707 68.387C154.567 68.365 154.436 68.46 154.414 68.6C154.392 68.74 154.487 68.871 154.627 68.893C154.767 68.915 154.898 68.82 154.92 68.68Z" fill="white"/>
</g>
<path id="Vector_15" d="M159.153 67.168L138.204 69.458C136.442 69.651 134.844 68.367 134.651 66.605L134.282 63.228C134.089 61.466 135.373 59.868 137.135 59.675L158.084 57.385C159.846 57.192 161.444 58.476 161.637 60.238L162.006 63.615C162.198 65.377 160.914 66.976 159.153 67.168Z" fill="#FBC0A7"/>
<path id="Vector_16" d="M143.857 62.393L160.494 60.574C162.018 60.407 163.128 59.024 162.962 57.501L162.914 57.061C162.747 55.537 161.364 54.427 159.841 54.594L143.204 56.413C141.68 56.58 140.57 57.963 140.736 59.486L140.784 59.926C140.95 61.449 142.333 62.559 143.857 62.393Z" fill="#191B2A"/>
</g>
<g id="Group_6">
<g id="Group_7">
<path id="Vector_17" d="M107.428 90.414L107.112 90.417C102.414 90.465 98.537 86.662 98.495 81.968L98.492 81.652C98.45 76.957 102.259 73.077 106.957 73.03L107.273 73.027C111.971 72.979 115.848 76.781 115.89 81.476L115.893 81.792C115.934 86.486 112.125 90.366 107.428 90.414Z" fill="#FBC0A7"/>
<path id="Vector_18" d="M107.303 85.812L107.154 85.814C104.943 85.836 103.119 84.047 103.099 81.838L103.098 81.69C103.078 79.481 104.871 77.655 107.081 77.632L107.23 77.631C109.441 77.609 111.265 79.398 111.285 81.607L111.286 81.755C111.306 83.964 109.514 85.79 107.303 85.812Z" fill="#FF9C8D"/>
</g>
</g>
</g>
<path id="Vector_19" d="M117.623 2.09999C109.412 4.04699 101.464 6.71198 97.956 7.93998C96.919 8.30298 95.876 8.64898 94.826 8.97198C84.019 12.294 77.362 19.775 78.059 30.737L78.311 34.7C78.608 39.366 82.416 42.919 86.773 42.595L159.989 46.7C159.989 46.7 186.971 45.358 182.778 5.69499C181.98 6.21799 170.756 9.82399 161.686 11.126C157.973 11.659 152.956 7.94399 148.467 5.16899C139.324 -0.482013 128.085 -0.381013 117.623 2.09999Z" fill="#191B2A"/>
</g>
<g id="Group_8">
<path id="Vector_20" d="M211.24 399.276L221.617 404.4C229.281 408.185 232.455 417.552 228.67 425.215L181.293 521.156C180.054 523.665 176.987 524.704 174.478 523.465L150.167 511.46L204.425 401.585C205.664 399.077 208.731 398.037 211.24 399.276Z" fill="#E27E6A"/>
<g id="Group_9">
<g id="Group_10">
<path id="Vector_21" d="M219.672 567.937C219.499 568.334 219.178 568.632 218.806 568.78C218.432 568.934 218.004 568.945 217.602 568.776L141.119 536.093L130.949 531.749C129.921 531.311 129.443 530.105 129.884 529.071L134.947 517.219C135.702 515.452 137.041 513.092 138.826 510.963C139.491 510.162 140.216 509.399 141 508.705C144.213 505.867 148.795 505.226 152.708 506.896L204.149 528.877C219.128 535.28 226.111 552.856 219.672 567.937Z" fill="#302E46"/>
<path id="Vector_22" d="M217.048 571.586L128.863 534.526C127.002 533.744 126.12 531.582 126.902 529.721C127.684 527.86 129.846 526.978 131.707 527.76L219.892 564.82C221.753 565.602 222.635 567.764 221.853 569.625C221.07 571.486 218.908 572.368 217.048 571.586Z" fill="#FEEDED"/>
</g>
<path id="Vector_23" d="M178.937 527.303C179.685 527.924 180.81 527.773 181.439 526.966L185.543 521.698C186.171 520.891 186.074 519.723 185.326 519.102C184.579 518.48 183.453 518.632 182.824 519.439L178.72 524.707C178.092 525.513 178.189 526.681 178.937 527.303Z" fill="#FEEDED"/>
<path id="Vector_24" d="M185.554 530.133C186.302 530.754 187.427 530.603 188.056 529.796L192.161 524.528C192.789 523.721 192.692 522.553 191.944 521.932C191.196 521.31 190.071 521.462 189.442 522.269L185.338 527.537C184.709 528.343 184.807 529.511 185.554 530.133Z" fill="#FEEDED"/>
<path id="Vector_25" d="M192.172 532.963C192.92 533.584 194.045 533.433 194.674 532.626L198.779 527.358C199.407 526.551 199.31 525.383 198.562 524.762C197.814 524.141 196.689 524.292 196.06 525.099L191.956 530.367C191.327 531.173 191.424 532.341 192.172 532.963Z" fill="#FEEDED"/>
</g>
<path id="Vector_26" d="M81.208 376.474V335.029C81.208 333.563 82.408 332.363 83.874 332.363H251.19C260.208 332.363 267.587 339.742 267.587 348.76V357.664C267.587 369.475 257.923 379.138 246.113 379.138H83.874C82.407 379.139 81.208 377.94 81.208 376.474Z" fill="#302E46"/>
<path id="Vector_27" d="M265.057 411.496L289.497 411.803C292.448 411.84 294.835 414.056 294.801 416.727L293.243 540.826L259.285 540.381L259.229 416.639C259.265 413.771 261.888 411.456 265.057 411.496Z" fill="#FB947B"/>
<path id="Vector_28" d="M153.554 497.893L190.931 516.249C192.198 516.871 193.745 516.344 194.367 515.076L262.483 376.378C266.312 368.582 263.066 359.07 255.269 355.241L229.762 342.715C228.495 342.093 226.948 342.62 226.326 343.888L152.381 494.457C151.759 495.724 152.286 497.271 153.554 497.893Z" fill="#302E46"/>
<path id="Vector_29" d="M104.961 384.6V341.161C104.961 339.614 106.226 338.349 107.773 338.349H285.378C294.891 338.349 302.674 346.132 302.674 355.645V364.76C302.674 377.218 292.481 387.412 280.022 387.412H107.772C106.226 387.412 104.961 386.147 104.961 384.6Z" fill="#403E55"/>
<path id="Vector_30" d="M254.193 522.633L298.372 523.091C299.824 523.106 301.024 521.93 301.039 520.478L302.674 362.89C302.746 355.936 297.115 350.187 290.161 350.115L255.986 349.761C254.534 349.746 253.334 350.922 253.319 352.374L251.58 519.965C251.565 521.418 252.741 522.618 254.193 522.633Z" fill="#403E55"/>
<path id="Vector_31" d="M82.164 387.6H136.783C145.679 387.6 152.959 376.547 152.959 363.039L152.407 318.514H65.954L65.989 363.039C65.988 376.547 73.267 387.6 82.164 387.6Z" fill="#403E55"/>
<path id="Vector_32" d="M62.79 358.555L152.809 338.315C153.593 338.337 154.251 337.506 154.28 336.459L158.531 183.076C159.282 155.992 143.457 133.58 123.184 133.018L94.086 133.374C76.396 132.884 68.991 150.691 68.336 174.326L62.79 358.555Z" fill="#4EB3AF"/>
<g id="Group_11">
<g id="Group_12">
<path id="Vector_33" d="M346.939 566.18C346.933 566.614 346.753 567.012 346.468 567.293C346.183 567.58 345.793 567.756 345.356 567.756L262.184 567.258L251.125 567.194C250.008 567.188 249.099 566.262 249.106 565.138L249.182 552.25C249.194 550.328 249.514 547.634 250.334 544.98C250.637 543.984 251.009 543 251.463 542.057C253.326 538.196 257.301 535.83 261.555 535.853L317.494 536.187C333.785 536.285 347.032 549.782 346.939 566.18Z" fill="#403E55"/>
<path id="Vector_34" d="M345.934 570.561H250.278C248.26 570.561 246.609 568.91 246.609 566.892C246.609 564.874 248.26 563.223 250.278 563.223H345.934C347.952 563.223 349.603 564.874 349.603 566.892C349.603 568.91 347.952 570.561 345.934 570.561Z" fill="#FCFEFF"/>
</g>
<path id="Vector_35" d="M293.642 544.502C294.572 544.785 295.551 544.209 295.818 543.222L297.561 536.775C297.828 535.788 297.285 534.749 296.355 534.465C295.425 534.182 294.446 534.758 294.179 535.745L292.436 542.192C292.17 543.179 292.712 544.219 293.642 544.502Z" fill="white"/>
<path id="Vector_36" d="M300.839 544.547C301.769 544.83 302.748 544.254 303.015 543.267L304.758 536.82C305.025 535.833 304.482 534.794 303.552 534.51C302.622 534.227 301.643 534.803 301.376 535.79L299.633 542.237C299.367 543.224 299.909 544.263 300.839 544.547Z" fill="white"/>
<path id="Vector_37" d="M308.036 544.592C308.966 544.875 309.945 544.299 310.212 543.312L311.955 536.865C312.222 535.878 311.679 534.839 310.749 534.555C309.819 534.272 308.84 534.848 308.573 535.835L306.83 542.282C306.564 543.269 307.107 544.309 308.036 544.592Z" fill="white"/>
</g>
</g>
</g>
<g id="Group_13">
<path id="Vector_38" d="M316.697 250.082C300.244 250.227 286.505 258.403 282.735 269.326C281.788 272.069 284.711 274.701 288.662 274.667L345.168 274.169C349.119 274.134 351.995 271.45 351 268.724C347.037 257.869 333.151 249.937 316.697 250.082Z" fill="#507087"/>
<path id="Vector_39" d="M305.48 239.369C290.115 241.641 278.694 253.523 277.078 267.544C276.672 271.065 279.866 273.957 283.556 273.411L336.324 265.609C340.014 265.063 342.234 261.371 340.827 258.118C335.221 245.166 320.845 237.098 305.48 239.369Z" fill="#F6977A"/>
<path id="Vector_40" d="M279.667 273.395L166.814 263.357L169.359 234.748L302.869 251.409L295.041 265.303C291.951 270.787 285.936 273.953 279.667 273.395Z" fill="#FB947B"/>
<path id="Vector_41" d="M163.372 263.496L177.117 254.004C182.011 250.624 183.25 243.854 179.87 238.96L117.443 148.56C114.063 143.666 107.293 142.427 102.399 145.807L99.931 147.511C88.834 155.174 86.025 170.523 93.688 181.62L148.327 260.742C151.708 265.637 158.478 266.876 163.372 263.496Z" fill="#78DBBE"/>
<path id="Vector_42" d="M275.925 247.678L272.196 279.86C272.069 280.937 271.086 281.706 270.013 281.565L256.756 279.818L249.448 278.853L240.674 277.701L233.376 276.736L224.602 275.579L217.294 274.619L158.139 266.819C151.651 265.962 146.943 260.326 147.674 254.298L149.356 240.404C150.087 234.375 155.989 230.14 162.477 230.993L222.161 238.755L229.469 239.706L238.248 240.849L245.551 241.795L254.325 242.938L261.633 243.889L274.248 245.529C275.302 245.664 276.047 246.625 275.925 247.678Z" fill="#78DBBE"/>
<path id="Vector_43" d="M261.633 243.889L256.756 279.818L249.449 278.853L254.325 242.938L261.633 243.889Z" fill="#4EB3AF"/>
<path id="Vector_44" d="M245.551 241.795L240.675 277.701L233.377 276.736L238.248 240.849L245.551 241.795Z" fill="#4EB3AF"/>
<path id="Vector_45" d="M229.47 239.706L224.602 275.579L217.295 274.619L222.162 238.755L229.47 239.706Z" fill="#4EB3AF"/>
</g>
<path id="Vector_46" d="M89.066 418.283H63.322C36.764 418.283 15.234 398.264 15.234 373.57V164.418C15.234 158.431 20.453 153.578 26.892 153.578H77.409C83.847 153.578 89.067 158.431 89.067 164.418V345.265C89.067 355.664 95.46 365.147 105.525 369.68L116.674 374.701L89.066 418.283Z" fill="#D74C6B"/>
<g id="Group_14">
<path id="Vector_47" d="M130.789 562.298C138.553 562.298 144.906 555.946 144.906 548.181V461.677C144.906 453.913 138.554 447.56 130.789 447.56C123.025 447.56 116.673 453.912 116.673 461.677V548.181C116.673 555.946 123.026 562.298 130.789 562.298Z" fill="#6F8EAA"/>
<g id="Group_15">
<g id="Group_16">
<path id="Vector_48" d="M54.0077 592.006C61.3156 590.82 66.2783 583.935 65.0923 576.627C63.9063 569.319 57.0206 564.356 49.7128 565.542C42.4049 566.728 37.4421 573.614 38.6282 580.922C39.8142 588.23 46.6998 593.192 54.0077 592.006Z" fill="#507087"/>
</g>
<g id="Group_17">
<path id="Vector_49" d="M114.823 588.248C120.058 583.014 120.058 574.526 114.823 569.291C109.588 564.056 101.1 564.056 95.8653 569.291C90.6304 574.526 90.6304 583.013 95.8653 588.248C101.1 593.483 109.588 593.483 114.823 588.248Z" fill="#507087"/>
</g>
<g id="Group_18">
<path id="Vector_50" d="M161.035 592.005C168.343 590.819 173.306 583.933 172.12 576.625C170.934 569.317 164.048 564.354 156.74 565.54C149.432 566.726 144.47 573.612 145.656 580.92C146.842 588.228 153.727 593.191 161.035 592.005Z" fill="#507087"/>
</g>
<g id="Group_19">
<path id="Vector_51" d="M214.55 592.004C221.858 590.817 226.82 583.932 225.634 576.624C224.448 569.316 217.563 564.353 210.255 565.539C202.947 566.725 197.984 573.611 199.17 580.919C200.356 588.227 207.242 593.19 214.55 592.004Z" fill="#507087"/>
</g>
</g>
<g id="Group_20">
<path id="Vector_52" d="M53.616 573.727H210.15C217.977 573.727 224.38 567.324 224.38 559.497C224.38 551.67 217.977 545.267 210.15 545.267H53.616C45.789 545.267 39.386 551.671 39.386 559.497C39.386 567.323 45.79 573.727 53.616 573.727Z" fill="#6F8EAA"/>
</g>
<path id="Vector_53" d="M119.794 481.696H141.786C149.587 481.696 155.97 475.313 155.97 467.512V411.739C155.97 403.938 149.587 397.555 141.786 397.555H119.794C111.993 397.555 105.61 403.938 105.61 411.739V467.512C105.609 475.313 111.992 481.696 119.794 481.696Z" fill="#507087"/>
</g>
<path id="Vector_54" d="M182.105 322.21H85.993C82.377 322.21 79.419 319.252 79.419 315.636V308.245C79.419 304.629 82.377 301.671 85.993 301.671H182.105C185.721 301.671 188.679 304.629 188.679 308.245V315.636C188.679 319.252 185.721 322.21 182.105 322.21Z" fill="#6F8EAA"/>
<path id="Vector_55" d="M192.773 328.854H119.33C114.962 328.854 111.388 325.28 111.388 320.912V303.247C111.388 298.879 114.962 295.305 119.33 295.305H192.773C201.704 295.305 209.012 302.612 209.012 311.544V312.615C209.011 321.547 201.704 328.854 192.773 328.854Z" fill="#F27792"/>
<path id="Vector_56" d="M205.527 322.637C202.548 326.413 197.934 328.853 192.771 328.853H119.328C115.552 328.853 112.372 326.183 111.58 322.637H205.527Z" fill="#D74C6B"/>
<path id="Vector_57" d="M226.449 374.7H97.324C84.447 374.7 74.009 364.994 74.009 353.021V164.418C74.009 158.431 68.79 153.578 62.351 153.578H11.834C5.39601 153.578 0.175995 158.431 0.175995 164.418V373.57C0.175995 397.982 21.218 417.822 47.357 418.272C48.279 418.384 49.216 418.447 50.17 418.447H226.449C238.451 418.447 248.27 409.317 248.27 398.157V394.989C248.271 383.831 238.451 374.7 226.449 374.7Z" fill="#F27792"/>
</g>
</svg>
